<?xml version="1.0" encoding="UTF-8" standalone="no"?>
<svg
   viewBox="0 0 200 160"
   width="200"
   height="160"
   version="1.1"
   id="svg4"
   sodipodi:docname="euroworks_logo_neu.svg"
   inkscape:version="1.4.3 (0d15f75, 2025-12-25)"
   xmlns:inkscape="http://www.inkscape.org/namespaces/inkscape"
   xmlns:sodipodi="http://sodipodi.sourceforge.net/DTD/sodipodi-0.dtd"
   xmlns="http://www.w3.org/2000/svg"
   xmlns:svg="http://www.w3.org/2000/svg">
  <defs
     id="defs4" />
  <sodipodi:namedview
     id="namedview4"
     pagecolor="#ffffff"
     bordercolor="#000000"
     borderopacity="0.25"
     inkscape:showpageshadow="2"
     inkscape:pageopacity="0.0"
     inkscape:pagecheckerboard="0"
     inkscape:deskcolor="#d1d1d1"
     showgrid="false"
     inkscape:zoom="5.1574601"
     inkscape:cx="100.14619"
     inkscape:cy="110.81036"
     inkscape:window-width="2560"
     inkscape:window-height="1369"
     inkscape:window-x="-8"
     inkscape:window-y="-8"
     inkscape:window-maximized="1"
     inkscape:current-layer="g3" />
  <!-- Group with skew transform centered perfectly over the text -->
  <g
     transform="matrix(1,0,-0.21255656,1,39.862897,14)"
     id="g4">
    <!-- Main E Emblem (solid slate blue/gray) -->
    <g
       fill="#5a6d80"
       id="g3">
      <!-- Top Part -->
      <path
         d="m 80,31 h 35 L 109.01366,43.745045 75,42 C 64.903321,41.481998 57,45 57,48 l 0,10 H 42 V 48 C 42,37 65,31 80,31 Z"
         id="path1"
         sodipodi:nodetypes="sccssccss"
         style="fill:#c2c2c2;fill-opacity:1" />
      <!-- Bottom Part -->
      <path
         d="m 42,72 h 15 l 0,10 c 0,3 8,6 18,6 h 40 L 109.40145,100.74505 80,99 C 64.835718,98.099964 42,93 42,82 Z"
         id="path2"
         sodipodi:nodetypes="ccssccssc"
         style="stroke:none;stroke-opacity:1;fill:#c2c2c2;fill-opacity:1" />
      <!-- Protruding Middle Bar -->
      <path
         d="M 30.070254,60.418318 89.752664,60.224424 85.888478,69.775576 30,69 Z"
         id="path3"
         sodipodi:nodetypes="ccccc"
         style="fill:#c2c2c2;fill-opacity:1" />
    </g>
  </g>
  <!-- Center Text EuroWorks underneath (keeps it upright for legibility) -->
  <text
     x="100"
     y="142"
     font-family="system-ui, -apple-system, sans-serif"
     font-size="20"
     font-weight="bold"
     fill="#5a6d80"
     text-anchor="middle"
     letter-spacing="1"
     id="text4"
     style="fill:#c2c2c2;fill-opacity:1">EuroWorks</text>
</svg>
