<svg xmlns="http://www.w3.org/2000/svg" viewBox="0 0 16 16" width="16" height="16">
  <path d="M2.5 12.5C1.5 11.5 1 10 1 8a6 6 0 0 1 10-4.5c2.5 2 3.5 5 2.5 7.5c-1 2.5-3.5 3-5.5 3c-1.5 0-2.5-.5-3.5-1.5c-.7-.7-1.1-1.1-2-1c-.9.1-1.3.7-1 1.5c.3.8-.5 1.5-1.5 1c-1-.5-1-1-1-1.5z" fill="#dd6b20" stroke="#7b341e" stroke-width="0.8"/>
  <!-- Paint blobs -->
  <circle cx="5" cy="5" r="1.5" fill="#3182ce"/>
  <circle cx="8" cy="4.5" r="1.5" fill="#e53e3e"/>
  <circle cx="11" cy="6" r="1.5" fill="#38a169"/>
  <circle cx="10" cy="9" r="1.5" fill="#ecc94b"/>
  <!-- Thumb hole -->
  <ellipse cx="5" cy="10" rx="1.2" ry="1.8" fill="#7b341e"/>
</svg>
